<?xml version="1.0" ?>
<svg width="100" height="100" viewBox="0 0 100 100" xmlns="http://www.w3.org/2000/svg">
    <!-- <rect x="0" y="0" width="100" height="100" fill="rgb(127,127,127)" /> -->

    <polygon points="35,40 75,30 85,50 88,5.85 30,25" fill="rgb(74, 92, 255)"/>

    <circle cx="50" cy="50" r="50" fill="rgb(74, 92, 255)" />
    <circle cx="55" cy="50" r="45" fill="rgb(255,238,74)" />

    <g transform="translate(5,0)">
        <ellipse cx="20" cy="80" rx="17.5" ry="14.5" fill="rgb(255,238,74)"/>
        <ellipse cx="20" cy="80" rx="15" ry="12" />
        <ellipse cx="65" cy="70" rx="15" ry="12" />

        <polygon points="30,40 80,30 81.5,8 25,25" fill="rgb(255,238,74)"/>

        <rect x="25" y="34" width="10" height="45" />
        <rect x="70" y="29" width="10" height="40" />

        <polygon points="25,45 80,30 80,10 25,25" />
    </g>
</svg>
