<?xml version="1.0" standalone="no"?>
<!DOCTYPE svg PUBLIC "-//W3C//DTD SVG 20010904//EN"
 "http://www.w3.org/TR/2001/REC-SVG-20010904/DTD/svg10.dtd">
<svg version="1.0" xmlns="http://www.w3.org/2000/svg"
 width="700pt" height="700pt" viewBox="0 0 700 700"
 preserveAspectRatio="xMidYMid meet">
<g transform="translate(0,700) scale(0.1,-0.1)"
fill="#000000" stroke="none">
<path d="M3335 6993 c-743 -36 -1446 -303 -2021 -765 -1199 -963 -1626 -2571
-1067 -4013 66 -172 280 -585 302 -585 3 0 14 27 24 59 51 161 196 349 378
486 l27 20 -54 134 c-93 228 -154 455 -197 731 -29 186 -31 671 -4 855 105
703 390 1288 862 1774 433 445 937 734 1530 876 274 66 394 79 735 79 267 0
323 -3 450 -22 359 -56 675 -157 984 -314 l119 -61 324 97 c178 54 326 97 327
95 2 -2 -6 -148 -19 -324 l-22 -320 97 -100 c312 -322 535 -674 695 -1096 65
-171 71 -170 14 2 -133 405 -348 793 -622 1124 l-91 109 23 351 c12 192 24
362 27 377 l5 27 -330 -110 -330 -110 -73 49 c-597 401 -1363 611 -2093 575z"/>
<path d="M4020 5776 l-1915 -523 -3 -1531 -2 -1531 -33 10 c-65 19 -224 39
-317 39 -432 0 -815 -210 -979 -538 -186 -371 7 -819 441 -1021 189 -89 314
-116 538 -116 232 0 357 28 555 125 189 92 339 237 420 405 80 165 75 68 75
1589 l0 1354 33 11 c17 5 563 154 1212 331 649 176 1186 323 1193 325 9 4 12
-182 12 -905 l0 -909 -32 10 c-66 19 -225 39 -318 39 -432 0 -815 -210 -979
-538 -186 -371 7 -819 441 -1021 189 -89 314 -116 538 -116 232 0 357 28 555
125 189 92 339 237 420 405 81 168 75 -25 75 2369 0 1175 -3 2136 -7 2135 -5
0 -870 -236 -1923 -523z"/>
<path d="M6807 2407 c-112 -302 -271 -587 -481 -857 -105 -136 -391 -422 -526
-526 -391 -302 -800 -497 -1259 -598 -276 -62 -363 -70 -691 -70 -230 0 -321
3 -415 17 -271 40 -567 120 -798 217 l-92 38 -42 -29 c-118 -82 -333 -165
-500 -194 -47 -8 -88 -17 -90 -19 -5 -5 178 -89 292 -134 298 -118 618 -196
955 -233 148 -16 532 -16 680 0 833 91 1551 431 2130 1011 399 398 681 856
855 1388 20 62 36 115 34 117 -2 2 -26 -56 -52 -128z"/>
</g>
</svg>
